HIERARCHY
ROOT root
{
	OFFSET	0	13.1	24.9
	CHANNELS 6  Xposition Yposition Zposition Xrotation Yrotation Zrotation
	JOINT spine_1
	{
		OFFSET	0	9.99999	0
		CHANNELS 3  Xrotation Yrotation Zrotation
		JOINT spine_2
		{
			OFFSET	0	112	-10
			CHANNELS 3  Xrotation Yrotation Zrotation
			JOINT spine_3
			{
				OFFSET	0	206.5	19.3
				CHANNELS 3  Xrotation Yrotation Zrotation
				JOINT spine_4
				{
					OFFSET	0	110.4	14.6
					CHANNELS 3  Xrotation Yrotation Zrotation
					JOINT neck_1
					{
						OFFSET	0	71.8	-50.3
						CHANNELS 3  Xrotation Yrotation Zrotation
						JOINT neck_2
						{
							OFFSET	0	86.2	-25.8
							CHANNELS 3  Xrotation Yrotation Zrotation
							JOINT head_ee
							{
								OFFSET	0	179.8	-8.7
								CHANNELS 3  Xrotation Yrotation Zrotation
								End Site
								{
									OFFSET	1	0	0
								}
							}
						}
					}
					JOINT left_clavicle
					{
						OFFSET	-43.2	22.4	-70.8
						CHANNELS 3  Xrotation Yrotation Zrotation
						JOINT left_shoulder
						{
							OFFSET	-93.9	-5.79999	48.7
							CHANNELS 3  Xrotation Yrotation Zrotation
							JOINT left_elbow
							{
								OFFSET	-291.4	-30.8	15.2
								CHANNELS 3  Xrotation Yrotation Zrotation
								JOINT left_lowarm_twist
								{
									OFFSET	-110.7	-3.89999	13.6
									CHANNELS 3  Xrotation Yrotation Zrotation
									JOINT left_hand
									{
										OFFSET	-110.7	-3.89999	13.6
										CHANNELS 3  Xrotation Yrotation Zrotation
										JOINT left_ee
										{
											OFFSET	-80.8	-5.10001	12.1
											CHANNELS 3  Xrotation Yrotation Zrotation
											End Site
											{
												OFFSET	1	0	0
											}
										}
									}
								}
							}
						}
					}
					JOINT right_clavicle
					{
						OFFSET	43.2	22.4	-70.8
						CHANNELS 3  Xrotation Yrotation Zrotation
						JOINT right_shoulder
						{
							OFFSET	93.9	-5.79999	48.7
							CHANNELS 3  Xrotation Yrotation Zrotation
							JOINT right_elbow
							{
								OFFSET	291.4	-30.8	15.2
								CHANNELS 3  Xrotation Yrotation Zrotation
								JOINT right_lowarm_twist
								{
									OFFSET	110.7	-3.89999	13.6
									CHANNELS 3  Xrotation Yrotation Zrotation
									JOINT right_hand
									{
										OFFSET	110.7	-3.89999	13.6
										CHANNELS 3  Xrotation Yrotation Zrotation
										JOINT right_ee
										{
											OFFSET	80.8	-5.10001	12.1
											CHANNELS 3  Xrotation Yrotation Zrotation
											End Site
											{
												OFFSET	1	0	0
											}
										}
									}
								}
							}
						}
					}
				}
			}
		}
	}
	JOINT left_hip
	{
		OFFSET	-82.8	-127.5	0.300001
		CHANNELS 3  Xrotation Yrotation Zrotation
		JOINT left_knee
		{
			OFFSET	-28.2	-396.7	2.2
			CHANNELS 3  Xrotation Yrotation Zrotation
			JOINT left_ankle
			{
				OFFSET	-11.7	-411.3	35.4
				CHANNELS 3  Xrotation Yrotation Zrotation
				JOINT left_toes
				{
					OFFSET	0	-60	-88.6
					CHANNELS 3  Xrotation Yrotation Zrotation
					JOINT left_foot_ee
					{
						OFFSET	-22.5	-16.5	-42.2
						CHANNELS 3  Xrotation Yrotation Zrotation
						End Site
						{
							OFFSET	1	0	0
						}
					}
				}
			}
		}
	}
	JOINT right_hip
	{
		OFFSET	82.8	-127.5	0.300001
		CHANNELS 3  Xrotation Yrotation Zrotation
		JOINT right_knee
		{
			OFFSET	28.2	-396.7	2.2
			CHANNELS 3  Xrotation Yrotation Zrotation
			JOINT right_ankle
			{
				OFFSET	11.7	-411.3	35.4
				CHANNELS 3  Xrotation Yrotation Zrotation
				JOINT right_toes
				{
					OFFSET	0	-60	-88.6
					CHANNELS 3  Xrotation Yrotation Zrotation
					JOINT right_foot_ee
					{
						OFFSET	22.5	-16.5	-42.2
						CHANNELS 3  Xrotation Yrotation Zrotation
						End Site
						{
							OFFSET	1	0	0
						}
					}
				}
			}
		}
	}
}
MOTION
Frames: 15
Frame Time: 0.02
1096.37 736.031 -702.421 122.856 -84.611 120.984 -0.566256 -0.00614499 0.682431 -0.565998 -0.0495563 0.680657 -0.566457 -0.197984 0.653111 -0.56704 -0.0923548 0.676181 -14.1323 0.0358627 -0.902745 -14.1303 0.618007 -0.845311 -0.0 0.0 -0.0 2.8468 6.85346 5.92198 16.6161 -32.8005 68.8629 1.198 -30.6861 0.328714 -82.5696 -8.14683 5.23777 0.924853 11.4955 10.6793 -0.0 0.0 -0.0 5.28872 15.5146 -9.42274 -23.1905 3.76578 -69.0768 0.539007 14.9499 -0.0707223 64.1488 2.15689 7.47705 -1.90716 -19.4263 3.55138 0.0 0.0 0.0 -5.57109 9.37926 10.0375 0.551512 -0.0231029 -0.0814795 30.3825 17.2453 -4.00394 -32.5462 0.0 0.0 -0.0 0.0 -0.0 10.9974 7.02159 6.67035 -49.3523 1.16623 -7.25392 40.3062 -21.457 5.09294 22.9105 -0.0 -0.0 0.0 0.0 0.0 
1109.1 735.765 -702.426 133.68 -84.017 131.887 -0.376133 0.0641774 0.505448 -0.375991 0.0318848 0.508507 -0.375622 -0.0790067 0.503343 -0.375976 0.00147746 0.509504 -14.1534 0.476311 0.207167 -14.1537 0.782905 0.347192 -0.0 0.0 -0.0 2.88554 6.15728 5.95167 18.0671 -32.8581 68.1034 1.21214 -30.9819 0.335962 -82.0556 -8.082 5.24734 0.798696 10.1317 9.34916 -0.0 0.0 -0.0 4.81313 14.1519 -8.51031 -24.24 3.70833 -69.3265 0.567476 15.7014 -0.078247 62.9211 2.04078 7.3707 -1.90852 -19.2488 3.64523 0.0 0.0 0.0 -6.58735 10.5773 10.6709 1.6341 -0.070732 -0.240769 31.6062 17.6625 -4.14289 -32.6455 0.0 0.0 -0.0 0.0 -0.0 13.1287 2.4786 7.32978 -48.0323 1.05515 -7.08374 40.0281 -19.6254 5.02248 22.7772 -0.0 -0.0 0.0 0.0 0.0 
1120.38 734.049 -696.059 131.859 -83.3928 129.865 -0.573312 0.0119643 0.585928 -0.573121 -0.0253434 0.585502 -0.573277 -0.153508 0.565588 -0.573718 -0.0622588 0.582733 -14.2284 0.87478 2.1392 -14.2155 0.370727 2.30647 -0.0 0.0 -0.0 2.94731 4.95849 5.99429 19.4968 -32.9059 66.3326 1.24788 -31.7215 0.354558 -82.2118 -8.1017 5.2445 0.282862 9.24692 5.66291 -0.0 0.0 -0.0 4.95744 13.3764 -8.87291 -24.2195 2.25437 -69.4786 0.437166 12.2194 -0.0467948 62.2061 1.97422 7.30763 -2.15053 -19.5053 4.96826 0.0 0.0 0.0 -9.42346 8.76301 10.7038 4.51877 -0.212282 -0.660627 34.7423 17.3293 -4.46589 -33.4218 0.0 0.0 -0.0 0.0 -0.0 16.3827 1.0836 6.20209 -47.3502 0.999302 -6.99482 39.0881 -17.7137 4.8956 22.0272 -0.0 -0.0 0.0 0.0 0.0 
1127.94 732.638 -692.315 142.347 -82.7177 140.833 -0.412135 0.0880419 0.403631 -0.412047 0.0621796 0.408415 -0.411541 -0.0280095 0.41217 -0.411775 0.0374361 0.411421 -14.2736 1.44925 3.02518 -14.2484 0.931767 3.32912 -0.0 0.0 -0.0 2.77471 4.37553 5.6403 20.3828 -32.9991 65.0894 1.32553 -33.2884 0.396288 -81.2877 -7.98496 5.26055 0.0617706 10.4377 4.71564 -0.0 0.0 -0.0 4.61085 12.0568 -8.23467 -24.337 2.43292 -69.2288 0.410073 11.4829 -0.0412307 61.5528 1.9141 7.24929 -2.15077 -19.5941 4.92553 0.0 0.0 0.0 -8.96229 10.1381 9.62715 2.43812 -0.108053 -0.358487 35.4318 16.8558 -4.52782 -33.2764 0.0 0.0 -0.0 0.0 -0.0 19.7054 1.87884 5.11364 -42.7416 0.650335 -6.37775 36.7511 -16.4312 4.65115 21.616 -0.0 -0.0 0.0 0.0 0.0 
1144.27 728.583 -684.738 149.286 -81.9453 148.138 -0.327916 0.0739853 0.366711 -0.327843 0.0505008 0.370675 -0.327467 -0.0306658 0.37284 -0.327659 0.0286018 0.373004 -14.7362 2.36505 4.47211 -14.6823 1.84233 4.99912 -0.0 0.0 -0.0 2.41162 3.85155 4.932 20.4241 -33.5773 62.6895 1.45124 -35.7103 0.467506 -81.1225 -7.96407 5.26322 -0.204484 10.3823 2.98796 -0.0 0.0 -0.0 4.32644 11.2741 -7.69343 -24.728 2.98985 -69.8445 0.361398 10.1501 -0.0320955 60.6269 1.83005 7.16545 -2.3476 -20.6409 5.57035 0.0 0.0 0.0 -9.22183 10.0766 7.95942 2.32915 -0.102898 -0.342563 36.1855 15.5037 -4.58219 -33.3166 0.0 0.0 -0.0 0.0 -0.0 20.2196 1.01453 3.84423 -33.2397 0.0935965 -5.02947 34.6574 -16.1402 4.43924 20.5569 -0.0 -0.0 0.0 0.0 0.0 
1157.4 727.546 -676.791 149.658 -81.4774 148.658 -0.373763 -0.0149334 0.340215 -0.373699 -0.0365518 0.338575 -0.373888 -0.109005 0.322625 -0.374029 -0.0566844 0.335792 -14.852 2.69101 5.29299 -14.7759 1.98525 5.88299 -0.0 0.0 -0.0 2.2333 3.51164 4.57528 19.9831 -33.6993 60.4031 1.57754 -38.0037 0.543277 -81.086 -7.95945 5.2638 -0.700331 10.5276 -0.118576 -0.0 0.0 -0.0 3.99049 9.8596 -7.09444 -24.9765 2.98557 -70.455 0.387695 10.8716 -0.0368926 60.1095 1.78368 7.11802 -2.48845 -21.2249 6.10314 0.0 0.0 0.0 -10.7637 10.0218 7.226 2.5417 -0.112981 -0.373614 37.4577 13.1976 -4.67508 -33.4242 0.0 0.0 -0.0 0.0 -0.0 21.3488 0.804822 2.47947 -26.2453 -0.169471 -3.98895 34.0882 -15.7379 4.37585 19.9813 -0.0 -0.0 0.0 0.0 0.0 
1172.41 724.77 -668.168 153.73 -79.4293 153.075 -0.546639 -0.0790673 0.330965 -0.546584 -0.0999671 0.325263 -0.547138 -0.168927 0.295387 -0.54724 -0.120157 0.318358 -14.1274 4.02972 6.58397 -14.0149 3.67938 7.51151 -0.0 0.0 -0.0 2.3904 3.15323 4.84205 17.9595 -32.5614 57.3057 1.77838 -41.3749 0.671594 -81.9337 -8.0666 5.24953 -1.18998 11.978 -2.5939 -0.0 0.0 -0.0 3.59829 8.7827 -6.36166 -24.5864 3.01759 -70.793 0.521655 14.4892 -0.0663132 59.8499 1.76058 7.09407 -3.12869 -22.6123 9.12026 0.0 0.0 0.0 -11.9148 10.2735 6.52643 2.38394 -0.105485 -0.350569 38.8536 13.9061 -4.81337 -34.1118 0.0 0.0 -0.0 0.0 -0.0 21.6022 2.64508 -1.21107 -15.6946 -0.322062 -2.37945 32.2914 -15.2648 4.18362 18.1887 -0.0 -0.0 0.0 0.0 0.0 
1186.05 717.427 -664.198 158.754 -77.7532 158.287 -0.490967 -0.101028 0.294645 -0.490926 -0.119572 0.28762 -0.491524 -0.179544 0.254532 -0.491589 -0.137092 0.279693 -14.0394 5.15416 7.6912 -13.8915 5.13748 8.90612 -0.0 0.0 -0.0 2.35323 2.74212 4.74216 17.592 -31.0787 55.5309 1.96288 -44.1922 0.796953 -81.8488 -8.05588 5.25103 -1.75087 14.2316 -5.08321 -0.0 0.0 -0.0 3.43881 7.82231 -6.10528 -24.9312 3.3571 -70.0563 0.547241 15.1678 -0.0728615 59.2611 1.70859 7.03935 -3.7889 -23.9416 12.2095 0.0 0.0 0.0 -13.0665 12.7989 6.39296 2.57836 -0.114731 -0.378965 41.1684 13.5316 -5.01481 -34.9297 0.0 0.0 -0.0 0.0 -0.0 21.4942 4.25987 -2.61037 -9.4259 -0.271846 -1.41941 33.2365 -14.5286 4.27347 16.9021 -0.0 -0.0 0.0 0.0 0.0 
1200.19 714.453 -659.978 160.674 -76.5352 160.547 -0.438172 -0.166017 0.306528 -0.438138 -0.185186 0.295342 -0.439107 -0.245033 0.247951 -0.439135 -0.202798 0.283538 -12.9862 5.90528 7.65548 -12.8473 6.42538 9.04682 -0.0 0.0 -0.0 2.47475 1.84424 4.90535 16.7569 -30.821 53.3764 2.1073 -46.2246 0.89946 -82.4477 -8.13145 5.2401 -2.17415 16.0297 -6.84284 -0.0 0.0 -0.0 3.28975 7.58848 -5.81766 -25.0611 3.71372 -69.8641 0.557113 15.4285 -0.0754662 59.1455 1.69844 7.02854 -4.17358 -24.5957 14.0545 0.0 0.0 0.0 -14.1074 12.8397 5.87241 2.13335 -0.0937112 -0.313926 41.5751 13.4675 -5.04901 -34.614 0.0 0.0 -0.0 0.0 -0.0 22.5478 5.46665 -4.66414 -3.57003 -0.130439 -0.532274 33.5329 -14.2377 4.30065 16.0359 -0.0 -0.0 0.0 0.0 0.0 
1215.17 709.79 -659.774 162.592 -75.6041 162.732 -0.441366 -0.0898719 0.271665 -0.441331 -0.106976 0.265396 -0.441824 -0.162191 0.23574 -0.44188 -0.122925 0.258396 -12.4329 5.93257 6.95669 -12.3241 6.83438 8.35947 -0.0 0.0 -0.0 2.77782 1.53974 5.45943 16.2274 -30.3692 52.1199 2.21205 -47.6105 0.975971 -82.8711 -8.18481 5.23189 -2.4449 17.3511 -7.84351 -0.0 0.0 -0.0 3.15742 7.24565 -5.57351 -24.989 4.01178 -69.8591 0.564073 15.6119 -0.0773286 58.9204 1.67877 7.00745 -4.5279 -25.0117 15.8674 0.0 0.0 0.0 -14.9594 13.5194 5.77793 2.35794 -0.104257 -0.346771 42.0249 12.1013 -5.0703 -34.5337 0.0 0.0 -0.0 0.0 -0.0 23.0806 6.4046 -5.83087 0.738253 0.0311034 0.109019 34.7032 -13.212 4.40802 15.4254 -0.0 -0.0 0.0 0.0 0.0 
1227.56 708.934 -658.574 162.012 -75.1125 162.4 -0.525872 -0.13323 0.243322 -0.525852 -0.148443 0.234351 -0.526468 -0.196194 0.196122 -0.526485 -0.162758 0.224646 -11.6508 6.79126 7.65961 -11.5181 7.88627 9.22575 -0.0 0.0 -0.0 2.46802 1.28426 4.8513 15.8095 -29.9398 51.4769 2.29964 -48.7156 1.04123 -83.2 -8.2262 5.22523 -2.71528 18.454 -8.92187 -0.0 0.0 -0.0 3.1334 7.06584 -5.53836 -25.1356 4.17669 -69.727 0.563808 15.6049 -0.0772572 58.959 1.68213 7.01107 -4.7062 -25.3842 16.6661 0.0 0.0 0.0 -15.7524 13.9374 5.89179 1.6735 -0.0725222 -0.246549 41.8643 13.2613 -5.07095 -34.9558 0.0 0.0 -0.0 0.0 -0.0 23.5637 6.97858 -6.39057 3.55709 0.16274 0.521438 34.8517 -13.4076 4.42484 15.0053 -0.0 -0.0 0.0 0.0 0.0 
1242.3 707.125 -658.012 159.851 -76.3251 160.137 -0.906746 -0.167641 0.165656 -0.906748 -0.177842 0.154653 -0.907248 -0.208151 0.110538 -0.907216 -0.188081 0.142024 -11.8543 5.87245 6.89891 -11.7445 6.66993 8.2567 -0.0 0.0 -0.0 3.10739 1.11657 6.06038 16.6512 -29.2589 51.6505 2.56273 -51.7635 1.24354 -83.7199 -8.29154 5.21423 -2.94712 19.8697 -9.56465 -0.0 0.0 -0.0 3.25699 6.87892 -5.80435 -24.7495 3.72286 -69.9001 0.560871 15.5275 -0.0764691 58.9414 1.6806 7.00942 -4.85187 -25.5331 17.4256 0.0 0.0 0.0 -17.1165 14.2377 6.1428 4.00006 -0.185269 -0.585652 41.7629 11.8606 -5.0455 -34.5367 0.0 0.0 -0.0 0.0 -0.0 25.1884 7.77505 -5.92707 5.82251 0.283172 0.847986 33.4556 -13.0252 4.28026 14.1454 -0.0 -0.0 0.0 0.0 0.0 
1253.27 705.155 -654.263 159.768 -76.7924 159.969 -1.08712 -0.162238 0.0253569 -1.08714 -0.163523 0.0149819 -1.08719 -0.162616 -0.022811 -1.08715 -0.164177 0.00315746 -11.5065 5.76968 6.6975 -11.4024 6.55428 8.01804 -0.0 0.0 -0.0 3.33326 1.07842 6.49028 16.5366 -28.1916 51.4638 2.73015 -53.5109 1.37663 -84.0951 -8.33862 5.20591 -2.95818 20.1609 -9.47137 -0.0 0.0 -0.0 3.45729 6.8049 -6.21769 -24.0716 3.77937 -70.0005 0.562373 15.5671 -0.0768716 58.9284 1.67946 7.0082 -4.94564 -25.488 18.0166 0.0 0.0 0.0 -17.8715 14.4268 6.14401 4.45557 -0.208954 -0.651506 41.5859 10.0381 -5.01332 -33.7711 0.0 0.0 -0.0 0.0 -0.0 26.1815 8.57394 -5.81407 5.73394 0.278221 0.835309 32.4075 -13.2131 4.17392 13.8789 -0.0 -0.0 0.0 0.0 0.0 
1263.69 703.224 -655.073 157.131 -77.6923 157.244 -1.35899 -0.200276 -0.136389 -1.359 -0.191191 -0.148857 -1.35849 -0.151189 -0.189352 -1.3585 -0.179196 -0.163099 -12.5288 5.47228 6.43314 -12.436 6.30699 7.73327 -0.0 0.0 -0.0 3.485 0.764841 6.7631 16.9172 -28.5428 51.8769 2.87295 -54.8955 1.49246 -83.8522 -8.30814 5.21133 -2.92139 20.4046 -9.11645 -0.0 0.0 -0.0 3.56767 6.938 -6.43308 -23.7323 3.83279 -69.8649 0.548019 15.1883 -0.0730651 58.5118 1.64324 6.96896 -5.02553 -25.7052 18.3363 0.0 0.0 0.0 -19.0304 14.1364 6.2247 5.25912 -0.252014 -0.767217 40.9008 9.67486 -4.95226 -34.5983 0.0 0.0 -0.0 0.0 -0.0 27.0277 9.16524 -4.97931 3.40636 0.155188 0.499549 34.4351 -13.1046 4.38012 14.5056 -0.0 -0.0 0.0 0.0 0.0 
1284.76 700.64 -654.979 154.112 -79.0792 154.026 -1.50498 -0.185416 -0.18511 -1.50498 -0.173262 -0.196534 -1.50436 -0.122041 -0.231843 -1.5044 -0.157125 -0.209659 -11.4368 5.45075 5.77621 -11.3646 6.54325 7.04328 -0.0 0.0 -0.0 3.95598 0.825781 7.67193 18.3691 -27.7315 53.7844 2.74362 -53.6456 1.38747 -84.4914 -8.38829 5.19679 -2.70037 19.9008 -8.06129 -0.0 0.0 -0.0 3.5774 6.94916 -6.45213 -23.6531 3.71624 -69.8213 0.552301 15.3015 -0.0741911 58.3622 1.6303 6.9548 -5.08369 -25.8382 18.5864 0.0 0.0 0.0 -20.4178 13.8267 6.52246 5.19748 -0.248653 -0.758361 40.8202 7.66991 -4.93392 -33.3039 0.0 0.0 -0.0 0.0 -0.0 27.0569 9.58294 -3.91458 0.747218 0.0314893 0.11034 36.8336 -13.665 4.62117 15.604 -0.0 -0.0 0.0 0.0 0.0 
